<?xml version="1.0" encoding="UTF-8" standalone="no"?><!DOCTYPE svg PUBLIC "-//W3C//DTD SVG 1.1//EN" "http://www.w3.org/Graphics/SVG/1.1/DTD/svg11.dtd"><svg width="100%" height="100%" viewBox="0 0 467 399" version="1.1" xmlns="http://www.w3.org/2000/svg" xmlns:xlink="http://www.w3.org/1999/xlink" xml:space="preserve" xmlns:serif="http://www.serif.com/" style="fill-rule:evenodd;clip-rule:evenodd;stroke-linejoin:round;stroke-miterlimit:2;"><g><path d="M299.81,349.085c-55.714,0 -100.879,-44.94 -100.879,-100.375c0,-7.517 0.857,-14.832 2.432,-21.877l-48.882,54.805c15.092,67.151 75.291,117.354 147.33,117.354c56.737,0 106.141,-31.145 131.955,-77.175l-46.189,-20.269c-17.792,28.529 -49.542,47.537 -85.766,47.537" style="fill:#025960;fill-rule:nonzero;"/><path d="M258.508,57.488l-44.484,53.756c24.369,-16.768 53.915,-26.614 85.785,-26.614c1.363,0 2.716,0.036 4.07,0.071l0,-84.701l-45.372,57.488Z" style="fill:#025960;fill-rule:nonzero;"/><path d="M251.272,171.708l0,141.678l52.608,0l0,-153.916c-1.355,-0.054 -2.702,-0.135 -4.07,-0.135c-17.597,0 -34.136,4.493 -48.537,12.373" style="fill:#025960;fill-rule:nonzero;"/><path d="M429.95,177.951l0.894,-3.954c-26.054,-45.146 -74.961,-75.569 -131.035,-75.569c-64.405,0 -119.36,40.127 -141.079,96.611l-113.358,-136.985l-45.372,-57.489l0,313.386l52.608,0l0,-164.896l97.188,116.921c0.001,0.007 0.002,0.015 0.003,0.023l66.94,-74.23c18.197,-26.235 48.611,-43.434 83.071,-43.434c36.974,0 69.283,19.803 86.848,49.32c7.821,-3.204 16.019,-6.554 23.633,-9.649l0.073,1.896c3.514,3.793 7.43,6.121 9.546,5.162c0.627,-0.284 2.267,-1.388 3.772,-2.691c0.464,-0.401 0.83,-0.749 1.073,-0.985c1.638,-3.159 3.275,-6.318 4.913,-9.477l-0.451,-1.545c0.393,-0.157 0.833,-0.334 1.212,-0.485l-0.478,-1.93Z" style="fill:#025960;fill-rule:nonzero;"/><path d="M424.444,191.676c0,0 18.216,-15.832 6.496,-45.787c-10.417,-26.619 -31.807,-38.52 -56.654,-54.873c-21.563,-14.191 -19.615,-30.252 -19.615,-30.252c-15.391,43.441 77.327,81.473 69.773,130.911Zm10.516,-93.343c-7.207,2.926 -10.47,12.335 -8.514,22.589c-3.658,-2.617 -7.904,-5.259 -12.846,-7.906c0.009,0.007 35.356,33.22 23.729,59.91c0,0 13.342,-12.054 8.339,-28.643c2.641,0.584 5.274,0.442 7.714,-0.547c8.72,-3.54 11.668,-16.573 6.582,-29.109c-4.22,-10.396 -12.635,-17.189 -20.359,-17.188c-1.591,0 -3.155,0.289 -4.645,0.893Zm-48.245,109.121c5.267,22.835 79.454,23.103 74.472,55.096c0.001,0 11.39,-15.221 -0.492,-32.93c-11.882,-17.706 -40.841,-20.318 -42.52,-44.861c-1.19,-17.407 -10.636,-24.591 -10.636,-24.591c3.673,18.174 -26.188,24.026 -20.824,47.285Zm-52.93,59.376c-19.055,30.972 -15.06,69.828 -15.06,69.828c0,0 11.086,-51.382 51.481,-73.898c23.199,-12.928 35.702,-23.623 42.442,-31.165c-6.995,-2.741 -13.693,-5.643 -18.931,-8.967c-4.489,-2.847 -7.662,-5.869 -9.647,-9.132c-12.624,25.033 -37.779,33.005 -50.285,53.334Zm66.395,39.187c0,-0.002 16.967,-30.828 56.959,-40.909c0,0 0.553,-7.115 -3.218,-13.08c-3.771,-5.967 -11.276,-8.489 -11.276,-8.489c-6.332,17.84 -43.699,14.413 -42.464,62.477Z" style="fill:url(#_Linear1);fill-rule:nonzero;"/></g><defs><linearGradient id="_Linear1" x1="0" y1="0" x2="1" y2="0" gradientUnits="userSpaceOnUse" gradientTransform="matrix(147.730653,0,0,147.730653,318.376658,198.711316)"><stop offset="0" style="stop-color:#e1ab6b;stop-opacity:1"/><stop offset="1" style="stop-color:#a18462;stop-opacity:1"/></linearGradient></defs></svg>