<?xml version="1.0" encoding="UTF-8" standalone="no"?><!DOCTYPE svg PUBLIC "-//W3C//DTD SVG 1.1//EN" "http://www.w3.org/Graphics/SVG/1.1/DTD/svg11.dtd"><svg width="100%" height="100%" viewBox="0 0 1000 399" version="1.1" xmlns="http://www.w3.org/2000/svg" xmlns:xlink="http://www.w3.org/1999/xlink" xml:space="preserve" xmlns:serif="http://www.serif.com/" style="fill-rule:evenodd;clip-rule:evenodd;stroke-linejoin:round;stroke-miterlimit:2;"><g><path d="M299.81,349.085c-55.714,0 -100.879,-44.94 -100.879,-100.375c0,-7.517 0.857,-14.832 2.432,-21.877l-48.882,54.805c15.092,67.151 75.291,117.354 147.33,117.354c56.737,0 106.141,-31.145 131.955,-77.175l-46.189,-20.269c-17.792,28.529 -49.542,47.537 -85.766,47.537" style="fill:#025960;fill-rule:nonzero;"/><path d="M258.508,57.488l-44.484,53.756c24.369,-16.768 53.915,-26.614 85.785,-26.614c1.363,0 2.716,0.036 4.07,0.071l0,-84.701l-45.372,57.488Z" style="fill:#025960;fill-rule:nonzero;"/><path d="M251.272,171.708l0,141.678l52.608,0l0,-153.916c-1.355,-0.054 -2.702,-0.135 -4.07,-0.135c-17.597,0 -34.136,4.493 -48.537,12.373" style="fill:#025960;fill-rule:nonzero;"/><path d="M429.95,177.951l0.894,-3.954c-26.054,-45.146 -74.961,-75.569 -131.035,-75.569c-64.405,0 -119.36,40.127 -141.079,96.611l-113.358,-136.985l-45.372,-57.489l0,313.386l52.608,0l0,-164.896l97.188,116.921c0.001,0.007 0.002,0.015 0.003,0.023l66.94,-74.23c18.197,-26.235 48.611,-43.434 83.071,-43.434c36.974,0 69.283,19.803 86.848,49.32c7.821,-3.204 16.019,-6.554 23.633,-9.649l0.073,1.896c3.514,3.793 7.43,6.121 9.546,5.162c0.627,-0.284 2.267,-1.388 3.772,-2.691c0.464,-0.401 0.83,-0.749 1.073,-0.985c1.638,-3.159 3.275,-6.318 4.913,-9.477l-0.451,-1.545c0.393,-0.157 0.833,-0.334 1.212,-0.485l-0.478,-1.93Z" style="fill:#025960;fill-rule:nonzero;"/><path d="M424.444,191.676c0,0 18.216,-15.832 6.496,-45.787c-10.417,-26.619 -31.807,-38.52 -56.654,-54.873c-21.563,-14.191 -19.615,-30.252 -19.615,-30.252c-15.391,43.441 77.327,81.473 69.773,130.911Zm10.516,-93.343c-7.207,2.926 -10.47,12.335 -8.514,22.589c-3.658,-2.617 -7.904,-5.259 -12.846,-7.906c0.009,0.007 35.356,33.22 23.729,59.91c0,0 13.342,-12.054 8.339,-28.643c2.641,0.584 5.274,0.442 7.714,-0.547c8.72,-3.54 11.668,-16.573 6.582,-29.109c-4.22,-10.396 -12.635,-17.189 -20.359,-17.188c-1.591,0 -3.155,0.289 -4.645,0.893Zm-48.245,109.121c5.267,22.835 79.454,23.103 74.472,55.096c0.001,0 11.39,-15.221 -0.492,-32.93c-11.882,-17.706 -40.841,-20.318 -42.52,-44.861c-1.19,-17.407 -10.636,-24.591 -10.636,-24.591c3.673,18.174 -26.188,24.026 -20.824,47.285Zm-52.93,59.376c-19.055,30.972 -15.06,69.828 -15.06,69.828c0,0 11.086,-51.382 51.481,-73.898c23.199,-12.928 35.702,-23.623 42.442,-31.165c-6.995,-2.741 -13.693,-5.643 -18.931,-8.967c-4.489,-2.847 -7.662,-5.869 -9.647,-9.132c-12.624,25.033 -37.779,33.005 -50.285,53.334Zm66.395,39.187c0,-0.002 16.967,-30.828 56.959,-40.909c0,0 0.553,-7.115 -3.218,-13.08c-3.771,-5.967 -11.276,-8.489 -11.276,-8.489c-6.332,17.84 -43.699,14.413 -42.464,62.477Z" style="fill:url(#_Linear1);fill-rule:nonzero;"/><path d="M548.31,252.395c-0.158,-0.673 -0.416,-2.536 -0.773,-5.588c-0.318,-2.537 -0.595,-4.639 -0.832,-6.302c-0.357,1.982 -0.862,3.964 -1.516,5.944c-0.653,1.983 -1.477,4.005 -2.467,6.064l-22.771,46.375l-22.77,-47.325c-0.952,-1.941 -1.774,-3.824 -2.467,-5.649c-0.695,-1.821 -1.299,-3.625 -1.814,-5.409c-0.04,1.823 -0.189,3.736 -0.446,5.737c-0.259,2.002 -0.645,4.092 -1.16,6.271l-9.334,42.867l-13.021,0l20.57,-90.726l25.684,54.934c0.396,0.872 1.001,2.318 1.814,4.34c0.812,2.021 1.794,4.519 2.943,7.491c0.832,-2.496 2.14,-5.667 3.924,-9.513c0.475,-1.029 0.832,-1.822 1.07,-2.377l25.089,-54.875l21.047,90.726l-13.139,0l-9.631,-42.985Z" style="fill:#025960;fill-rule:nonzero;"/><path d="M637.634,260.608c0,-3.594 -0.655,-7.008 -1.966,-10.245c-1.312,-3.236 -3.197,-6.117 -5.656,-8.642c-2.396,-2.492 -5.17,-4.41 -8.327,-5.753c-3.155,-1.344 -6.481,-2.015 -9.977,-2.015c-3.496,0 -6.821,0.664 -9.978,1.991c-3.155,1.327 -5.964,3.251 -8.424,5.777c-2.459,2.493 -4.338,5.357 -5.632,8.594c-1.296,3.237 -1.942,6.668 -1.942,10.293c0,3.592 0.646,6.992 1.942,10.195c1.294,3.205 3.173,6.069 5.632,8.594c2.459,2.525 5.259,4.451 8.399,5.778c3.139,1.328 6.473,1.99 10.002,1.99c3.462,0 6.755,-0.662 9.88,-1.99c3.123,-1.327 5.931,-3.253 8.424,-5.778c2.459,-2.525 4.345,-5.397 5.656,-8.618c1.31,-3.22 1.966,-6.611 1.966,-10.171m12.042,0c0,5.049 -0.946,9.824 -2.841,14.322c-1.893,4.499 -4.653,8.513 -8.278,12.04c-3.658,3.528 -7.784,6.231 -12.381,8.109c-4.595,1.876 -9.418,2.816 -14.467,2.816c-5.116,0 -9.994,-0.947 -14.639,-2.84c-4.645,-1.893 -8.747,-4.588 -12.308,-8.084c-3.625,-3.527 -6.377,-7.525 -8.254,-11.992c-1.877,-4.466 -2.816,-9.256 -2.816,-14.371c0,-5.081 0.938,-9.872 2.816,-14.371c1.877,-4.499 4.629,-8.528 8.254,-12.09c3.625,-3.528 7.736,-6.215 12.332,-8.059c4.597,-1.845 9.468,-2.768 14.615,-2.768c5.113,0 9.96,0.923 14.541,2.768c4.58,1.844 8.683,4.531 12.307,8.059c3.625,3.592 6.385,7.647 8.278,12.162c1.895,4.515 2.841,9.282 2.841,14.298" style="fill:#025960;fill-rule:nonzero;"/><path d="M677.981,298.77l-31.704,-73.846l11.992,0l15.925,37.869c0.939,2.202 1.715,4.232 2.33,6.093c0.615,1.861 1.1,3.634 1.456,5.317c0.42,-1.779 0.954,-3.625 1.603,-5.536c0.646,-1.91 1.408,-3.867 2.282,-5.875l15.875,-37.869l11.944,0l-31.704,73.846Z" style="fill:#025960;fill-rule:nonzero;"/><rect x="717.065" y="224.923" width="11.555" height="71.079" style="fill:#025960;"/><path d="M853.76,268.085l19.808,0l-7.283,-16.216c-0.421,-1.037 -0.858,-2.226 -1.31,-3.57c-0.455,-1.342 -0.907,-2.84 -1.36,-4.491c-0.389,1.554 -0.802,3.002 -1.238,4.346c-0.437,1.344 -0.882,2.581 -1.335,3.714l-7.283,16.216Zm31.946,27.917l-8.059,-18.304l-28.159,0l-8.255,18.304l-12.137,0l34.422,-73.895l34.375,73.895l-12.186,0Z" style="fill:#025960;fill-rule:nonzero;"/><path d="M916.147,255.219l2.088,0c6.117,0 10.179,-0.712 12.186,-2.136c2.006,-1.424 3.011,-3.949 3.011,-7.575c0,-3.916 -1.077,-6.675 -3.229,-8.277c-2.153,-1.603 -6.141,-2.403 -11.968,-2.403l-2.088,0l0,20.391Zm-0.728,8.982l0,31.801l-10.827,0l0,-71.078l16.119,0c4.725,0 8.39,0.307 10.996,0.922c2.605,0.615 4.831,1.635 6.676,3.059c2.2,1.715 3.899,3.932 5.099,6.651c1.196,2.72 1.796,5.698 1.796,8.934c0,5.697 -1.376,10.156 -4.126,13.375c-2.752,3.221 -6.815,5.155 -12.186,5.802l24.469,32.335l-13.061,0l-23.643,-31.801l-1.311,0Z" style="fill:#025960;fill-rule:nonzero;"/><path d="M960.28,296.002l0,-71.079l39.666,0l0,9.806l-28.111,0l0,17.818l28.111,0l0,10.148l-28.111,0l0,22.965l28.111,0l0,10.341l-39.666,0Z" style="fill:#025960;fill-rule:nonzero;"/><path d="M797.497,286.593c-18.659,0.71 -34.176,-13.648 -34.176,-34.332c0,-18.621 12.351,-35.847 35.521,-34.722c8.82,0.428 18.375,3.698 25.353,10.218l0.678,-12.519c-4.361,-3.011 -8.859,-5.263 -13.496,-6.749c-4.637,-1.486 -9.512,-2.23 -14.625,-2.23c-6.501,0 -12.545,1.101 -18.133,3.301c-5.59,2.2 -10.544,5.44 -14.864,9.721c-4.32,4.241 -7.621,9.166 -9.899,14.773c-2.279,5.609 -3.418,11.604 -3.418,17.985c0,6.381 1.138,12.395 3.418,18.044c2.279,5.647 5.538,10.552 9.781,14.714c4.279,4.241 9.245,7.452 14.891,9.631c5.649,2.181 11.801,3.271 18.461,3.271c5.232,0 10.086,-0.675 14.565,-2.021c4.479,-1.348 8.621,-3.389 12.427,-6.125l0,-13.368c-6.51,6.104 -15.702,9.998 -26.485,10.408" style="fill:#025960;fill-rule:nonzero;"/><rect x="471.477" y="319.973" width="1.854" height="20.405" style="fill:#025960;"/><path d="M489.837,340.379l0,-21.27l14.454,17.074l0,-16.21l1.729,0l0,21.005l-14.44,-17.103l0,16.503l-1.743,0Z" style="fill:#025960;fill-rule:nonzero;"/><path d="M520.964,336.95l1.588,-0.851c0.298,1.004 0.811,1.783 1.54,2.335c0.73,0.553 1.605,0.829 2.628,0.829c1.292,0 2.3,-0.381 3.025,-1.143c0.725,-0.762 1.087,-1.816 1.087,-3.164c0,-0.985 -0.245,-1.802 -0.732,-2.453c-0.489,-0.65 -1.536,-1.403 -3.143,-2.258c-2.054,-1.087 -3.42,-2.044 -4.098,-2.871c-0.679,-0.827 -1.017,-1.821 -1.017,-2.983c0,-1.45 0.49,-2.629 1.471,-3.541c0.981,-0.91 2.251,-1.366 3.812,-1.366c1.023,0 1.912,0.216 2.67,0.648c0.757,0.433 1.373,1.08 1.847,1.945l-1.436,0.864c-0.298,-0.585 -0.718,-1.031 -1.262,-1.338c-0.543,-0.307 -1.186,-0.46 -1.93,-0.46c-1.003,0 -1.803,0.295 -2.397,0.885c-0.595,0.59 -0.892,1.387 -0.892,2.391c0,1.43 1.18,2.765 3.54,4c0.428,0.223 0.753,0.395 0.976,0.515c1.737,0.958 2.899,1.861 3.485,2.711c0.585,0.85 0.877,1.954 0.877,3.31c0,1.831 -0.534,3.283 -1.603,4.356c-1.068,1.074 -2.523,1.611 -4.363,1.611c-1.338,0 -2.483,-0.332 -3.436,-0.997c-0.953,-0.664 -1.698,-1.656 -2.237,-2.976" style="fill:#025960;fill-rule:nonzero;"/><path d="M548.078,319.973l1.826,0l0,13.325c0,2.017 0.459,3.515 1.379,4.495c0.92,0.981 2.328,1.47 4.223,1.47c1.868,0 3.262,-0.489 4.182,-1.47c0.92,-0.981 1.38,-2.479 1.38,-4.495l0,-13.325l1.854,0l0,12.725c0,2.76 -0.613,4.821 -1.84,6.182c-1.227,1.361 -3.085,2.042 -5.576,2.042c-2.5,0 -4.363,-0.681 -5.589,-2.042c-1.227,-1.361 -1.84,-3.422 -1.84,-6.182l0,-12.725Z" style="fill:#025960;fill-rule:nonzero;"/><path d="M588.641,341.174l-7.164,-16.378l-1.548,15.583l-1.91,0l2.774,-21.27l7.819,18.162l8.113,-18.162l2.621,21.27l-1.91,0l-1.519,-15.583l-7.275,16.378Z" style="fill:#025960;fill-rule:nonzero;"/><path d="M624.556,339.264c1.209,0 2.353,-0.223 3.432,-0.669c1.078,-0.446 2.05,-1.097 2.916,-1.951c0.846,-0.864 1.495,-1.847 1.946,-2.948c0.451,-1.101 0.677,-2.26 0.677,-3.477c0,-1.227 -0.223,-2.386 -0.67,-3.479c-0.446,-1.091 -1.097,-2.074 -1.952,-2.947c-0.847,-0.855 -1.811,-1.505 -2.895,-1.952c-1.084,-0.446 -2.235,-0.669 -3.452,-0.669c-1.209,0 -2.349,0.223 -3.418,0.669c-1.068,0.446 -2.036,1.097 -2.901,1.952c-0.855,0.882 -1.507,1.865 -1.953,2.947c-0.446,1.084 -0.67,2.243 -0.67,3.479c0,1.227 0.223,2.385 0.67,3.477c0.446,1.092 1.098,2.075 1.953,2.948c0.856,0.864 1.813,1.517 2.873,1.958c1.06,0.441 2.208,0.662 3.446,0.662m10.934,-9.046c0,1.44 -0.274,2.808 -0.822,4.105c-0.548,1.297 -1.339,2.451 -2.371,3.464c-1.052,1.022 -2.237,1.8 -3.557,2.334c-1.321,0.534 -2.716,0.802 -4.184,0.802c-1.469,0 -2.862,-0.268 -4.177,-0.802c-1.316,-0.534 -2.495,-1.312 -3.536,-2.334c-1.042,-1.032 -1.834,-2.191 -2.378,-3.478c-0.544,-1.287 -0.816,-2.651 -0.816,-4.09c0,-1.459 0.272,-2.837 0.816,-4.133c0.544,-1.297 1.336,-2.46 2.378,-3.492c1.023,-1.013 2.19,-1.779 3.501,-2.3c1.312,-0.52 2.716,-0.78 4.212,-0.78c1.506,0 2.918,0.263 4.233,0.788c1.316,0.525 2.485,1.29 3.509,2.293c1.041,1.032 1.833,2.195 2.377,3.492c0.544,1.296 0.816,2.674 0.816,4.133" style="fill:#025960;fill-rule:nonzero;"/><path d="M649.447,336.95l1.588,-0.851c0.298,1.004 0.811,1.783 1.54,2.335c0.73,0.553 1.605,0.829 2.628,0.829c1.292,0 2.3,-0.381 3.025,-1.143c0.725,-0.762 1.087,-1.816 1.087,-3.164c0,-0.985 -0.245,-1.802 -0.732,-2.453c-0.489,-0.65 -1.536,-1.403 -3.143,-2.258c-2.054,-1.087 -3.42,-2.044 -4.098,-2.871c-0.679,-0.827 -1.017,-1.821 -1.017,-2.983c0,-1.45 0.49,-2.629 1.471,-3.541c0.981,-0.91 2.251,-1.366 3.812,-1.366c1.023,0 1.912,0.216 2.67,0.648c0.757,0.433 1.373,1.08 1.847,1.945l-1.436,0.864c-0.298,-0.585 -0.718,-1.031 -1.262,-1.338c-0.543,-0.307 -1.186,-0.46 -1.93,-0.46c-1.003,0 -1.803,0.295 -2.397,0.885c-0.595,0.59 -0.892,1.387 -0.892,2.391c0,1.43 1.18,2.765 3.54,4c0.428,0.223 0.753,0.395 0.976,0.515c1.737,0.958 2.899,1.861 3.485,2.711c0.585,0.85 0.877,1.954 0.877,3.31c0,1.831 -0.534,3.283 -1.603,4.356c-1.068,1.074 -2.523,1.611 -4.363,1.611c-1.338,0 -2.483,-0.332 -3.436,-0.997c-0.953,-0.664 -1.698,-1.656 -2.237,-2.976" style="fill:#025960;fill-rule:nonzero;"/><path d="M706.23,339.264c1.209,0 2.353,-0.223 3.432,-0.669c1.078,-0.446 2.05,-1.097 2.916,-1.951c0.846,-0.864 1.495,-1.847 1.946,-2.948c0.451,-1.101 0.677,-2.26 0.677,-3.477c0,-1.227 -0.223,-2.386 -0.67,-3.479c-0.446,-1.091 -1.097,-2.074 -1.952,-2.947c-0.847,-0.855 -1.811,-1.505 -2.895,-1.952c-1.084,-0.446 -2.235,-0.669 -3.452,-0.669c-1.209,0 -2.349,0.223 -3.418,0.669c-1.068,0.446 -2.036,1.097 -2.901,1.952c-0.855,0.882 -1.507,1.865 -1.953,2.947c-0.446,1.084 -0.67,2.243 -0.67,3.479c0,1.227 0.223,2.385 0.67,3.477c0.446,1.092 1.098,2.075 1.953,2.948c0.856,0.864 1.813,1.517 2.873,1.958c1.06,0.441 2.208,0.662 3.446,0.662m10.934,-9.046c0,1.44 -0.274,2.808 -0.822,4.105c-0.548,1.297 -1.339,2.451 -2.371,3.464c-1.052,1.022 -2.237,1.8 -3.557,2.334c-1.321,0.534 -2.716,0.802 -4.184,0.802c-1.469,0 -2.862,-0.268 -4.177,-0.802c-1.316,-0.534 -2.495,-1.312 -3.536,-2.334c-1.042,-1.032 -1.834,-2.191 -2.378,-3.478c-0.544,-1.287 -0.816,-2.651 -0.816,-4.09c0,-1.459 0.272,-2.837 0.816,-4.133c0.544,-1.297 1.336,-2.46 2.378,-3.492c1.023,-1.013 2.19,-1.779 3.501,-2.3c1.312,-0.52 2.716,-0.78 4.212,-0.78c1.506,0 2.918,0.263 4.233,0.788c1.316,0.525 2.485,1.29 3.509,2.293c1.041,1.032 1.833,2.195 2.377,3.492c0.544,1.296 0.816,2.674 0.816,4.133" style="fill:#025960;fill-rule:nonzero;"/><path d="M734.535,321.59l0,7.541l1.868,0c1.728,0 2.934,-0.277 3.617,-0.829c0.682,-0.554 1.024,-1.494 1.024,-2.823c0,-1.403 -0.353,-2.402 -1.059,-2.997c-0.707,-0.595 -1.901,-0.892 -3.582,-0.892l-1.868,0Zm10.538,18.789l-2.258,0l-7.164,-9.729l-1.115,0l0,9.729l-1.854,0l0,-20.405l3.749,0c2.212,0 3.869,0.459 4.969,1.379c1.101,0.92 1.652,2.314 1.652,4.182c0,1.589 -0.472,2.839 -1.415,3.749c-0.944,0.911 -2.242,1.367 -3.896,1.367l7.332,9.729Z" style="fill:#025960;fill-rule:nonzero;"/><path d="M762.29,340.379l0,-18.664l-5.617,0l0,-1.741l13.102,0l0,1.741l-5.631,0l0,18.664l-1.854,0Z" style="fill:#025960;fill-rule:nonzero;"/><path d="M792.658,339.264c1.209,0 2.353,-0.223 3.432,-0.669c1.078,-0.446 2.05,-1.097 2.916,-1.951c0.846,-0.864 1.495,-1.847 1.946,-2.948c0.451,-1.101 0.677,-2.26 0.677,-3.477c0,-1.227 -0.223,-2.386 -0.67,-3.479c-0.446,-1.091 -1.097,-2.074 -1.952,-2.947c-0.847,-0.855 -1.811,-1.505 -2.895,-1.952c-1.084,-0.446 -2.235,-0.669 -3.452,-0.669c-1.209,0 -2.349,0.223 -3.418,0.669c-1.068,0.446 -2.036,1.097 -2.901,1.952c-0.855,0.882 -1.507,1.865 -1.953,2.947c-0.446,1.084 -0.67,2.243 -0.67,3.479c0,1.227 0.223,2.385 0.67,3.477c0.446,1.092 1.098,2.075 1.953,2.948c0.856,0.864 1.813,1.517 2.873,1.958c1.06,0.441 2.208,0.662 3.446,0.662m10.934,-9.046c0,1.44 -0.274,2.808 -0.822,4.105c-0.548,1.297 -1.339,2.451 -2.371,3.464c-1.052,1.022 -2.237,1.8 -3.557,2.334c-1.321,0.534 -2.716,0.802 -4.184,0.802c-1.469,0 -2.862,-0.268 -4.177,-0.802c-1.316,-0.534 -2.495,-1.312 -3.536,-2.334c-1.042,-1.032 -1.834,-2.191 -2.378,-3.478c-0.544,-1.287 -0.816,-2.651 -0.816,-4.09c0,-1.459 0.272,-2.837 0.816,-4.133c0.544,-1.297 1.336,-2.46 2.378,-3.492c1.023,-1.013 2.19,-1.779 3.501,-2.3c1.312,-0.52 2.716,-0.78 4.212,-0.78c1.506,0 2.918,0.263 4.233,0.788c1.316,0.525 2.485,1.29 3.509,2.293c1.041,1.032 1.833,2.195 2.377,3.492c0.544,1.296 0.816,2.674 0.816,4.133" style="fill:#025960;fill-rule:nonzero;"/><path d="M820.962,329.59l1.269,0c2.248,0 3.761,-0.286 4.537,-0.857c0.775,-0.572 1.164,-1.573 1.164,-3.004c0,-0.604 -0.088,-1.159 -0.265,-1.666c-0.177,-0.507 -0.441,-0.96 -0.795,-1.359c-0.362,-0.409 -0.855,-0.697 -1.477,-0.865c-0.622,-0.167 -1.678,-0.251 -3.164,-0.251l-1.269,0l0,8.001Zm-1.854,10.789l0,-20.406l3.722,0c1.468,0 2.548,0.079 3.241,0.237c0.692,0.158 1.294,0.418 1.805,0.78c0.641,0.464 1.138,1.101 1.491,1.91c0.353,0.808 0.529,1.705 0.529,2.69c0,1.942 -0.543,3.366 -1.631,4.272c-1.087,0.906 -2.806,1.359 -5.157,1.359l-2.147,0l0,9.157l-1.854,0Z" style="fill:#025960;fill-rule:nonzero;"/><path d="M847.951,317.966l2.968,-4.878l2.286,0l-3.945,4.878l-1.31,0Zm-3.15,22.413l0,-20.405l10.105,0l0,1.742l-8.252,0l0,6.384l8.252,0l0,1.743l-8.252,0l0,8.795l8.252,0l0,1.742l-10.105,0Z" style="fill:#025960;fill-rule:nonzero;"/><path d="M872.721,338.776l2.607,0c2.109,0 3.605,-0.119 4.488,-0.355c0.883,-0.237 1.631,-0.639 2.245,-1.206c0.855,-0.799 1.501,-1.794 1.937,-2.983c0.437,-1.19 0.655,-2.546 0.655,-4.071c0,-1.561 -0.221,-2.936 -0.663,-4.125c-0.441,-1.189 -1.093,-2.165 -1.958,-2.927c-0.651,-0.585 -1.445,-0.999 -2.383,-1.241c-0.938,-0.241 -2.579,-0.363 -4.92,-0.363l-2.007,0l0,17.27Zm-1.854,1.603l0,-20.406l3.178,0c2.834,0 4.846,0.139 6.035,0.418c1.19,0.279 2.212,0.758 3.067,1.436c1.133,0.901 1.997,2.063 2.592,3.485c0.595,1.422 0.892,3.048 0.892,4.878c0,1.831 -0.298,3.46 -0.892,4.886c-0.595,1.426 -1.45,2.567 -2.564,3.422c-0.883,0.679 -1.892,1.162 -3.025,1.45c-1.133,0.288 -2.959,0.432 -5.478,0.432l-3.805,0Z" style="fill:#025960;fill-rule:nonzero;"/><rect x="902.177" y="319.973" width="1.854" height="20.405" style="fill:#025960;"/><path d="M936.928,323.709c-1.013,-0.874 -2.049,-1.519 -3.109,-1.938c-1.059,-0.418 -2.174,-0.627 -3.345,-0.627c-2.639,0 -4.784,0.836 -6.432,2.509c-1.649,1.672 -2.474,3.851 -2.474,6.537c0,1.348 0.202,2.56 0.606,3.638c0.405,1.078 1.02,2.035 1.847,2.871c0.818,0.818 1.753,1.44 2.809,1.868c1.054,0.428 2.185,0.641 3.393,0.641c1.171,0 2.314,-0.2 3.429,-0.6c1.115,-0.399 2.17,-0.989 3.164,-1.769l0,2.174c-1.004,0.613 -2.066,1.085 -3.185,1.415c-1.12,0.33 -2.228,0.495 -3.324,0.495c-1.477,0 -2.89,-0.265 -4.237,-0.795c-1.348,-0.53 -2.505,-1.273 -3.471,-2.231c-0.994,-0.985 -1.747,-2.127 -2.257,-3.428c-0.511,-1.302 -0.767,-2.728 -0.767,-4.279c0,-1.524 0.263,-2.946 0.788,-4.265c0.524,-1.32 1.279,-2.458 2.265,-3.416c0.957,-0.938 2.111,-1.672 3.464,-2.202c1.353,-0.53 2.757,-0.795 4.216,-0.795c1.301,0 2.506,0.179 3.617,0.537c1.11,0.357 2.121,0.894 3.031,1.609l-0.028,2.05Z" style="fill:#025960;fill-rule:nonzero;"/><path d="M962.306,339.264c1.209,0 2.353,-0.223 3.432,-0.669c1.078,-0.446 2.05,-1.097 2.916,-1.951c0.846,-0.864 1.495,-1.847 1.946,-2.948c0.451,-1.101 0.677,-2.26 0.677,-3.477c0,-1.227 -0.223,-2.386 -0.67,-3.479c-0.446,-1.091 -1.097,-2.074 -1.952,-2.947c-0.847,-0.855 -1.811,-1.505 -2.895,-1.952c-1.084,-0.446 -2.235,-0.669 -3.452,-0.669c-1.209,0 -2.349,0.223 -3.418,0.669c-1.068,0.446 -2.036,1.097 -2.901,1.952c-0.855,0.882 -1.507,1.865 -1.953,2.947c-0.446,1.084 -0.67,2.243 -0.67,3.479c0,1.227 0.223,2.385 0.67,3.477c0.446,1.092 1.098,2.075 1.953,2.948c0.856,0.864 1.813,1.517 2.873,1.958c1.06,0.441 2.208,0.662 3.446,0.662m10.934,-9.046c0,1.44 -0.274,2.808 -0.822,4.105c-0.548,1.297 -1.339,2.451 -2.371,3.464c-1.052,1.022 -2.237,1.8 -3.557,2.334c-1.321,0.534 -2.716,0.802 -4.184,0.802c-1.469,0 -2.862,-0.268 -4.177,-0.802c-1.316,-0.534 -2.495,-1.312 -3.536,-2.334c-1.042,-1.032 -1.834,-2.191 -2.378,-3.478c-0.544,-1.287 -0.816,-2.651 -0.816,-4.09c0,-1.459 0.272,-2.837 0.816,-4.133c0.544,-1.297 1.336,-2.46 2.378,-3.492c1.023,-1.013 2.19,-1.779 3.501,-2.3c1.312,-0.52 2.716,-0.78 4.212,-0.78c1.506,0 2.918,0.263 4.233,0.788c1.316,0.525 2.485,1.29 3.509,2.293c1.041,1.032 1.833,2.195 2.377,3.492c0.544,1.296 0.816,2.674 0.816,4.133" style="fill:#025960;fill-rule:nonzero;"/><path d="M987.196,336.95l1.588,-0.851c0.298,1.004 0.811,1.783 1.54,2.335c0.73,0.553 1.605,0.829 2.628,0.829c1.292,0 2.3,-0.381 3.025,-1.143c0.725,-0.762 1.087,-1.816 1.087,-3.164c0,-0.985 -0.245,-1.802 -0.732,-2.453c-0.489,-0.65 -1.536,-1.403 -3.143,-2.258c-2.054,-1.087 -3.42,-2.044 -4.098,-2.871c-0.679,-0.827 -1.017,-1.821 -1.017,-2.983c0,-1.45 0.49,-2.629 1.471,-3.541c0.981,-0.91 2.251,-1.366 3.812,-1.366c1.023,0 1.912,0.216 2.67,0.648c0.757,0.433 1.373,1.08 1.847,1.945l-1.436,0.864c-0.298,-0.585 -0.718,-1.031 -1.262,-1.338c-0.543,-0.307 -1.186,-0.46 -1.93,-0.46c-1.003,0 -1.803,0.295 -2.397,0.885c-0.595,0.59 -0.892,1.387 -0.892,2.391c0,1.43 1.18,2.765 3.54,4c0.428,0.223 0.753,0.395 0.976,0.515c1.737,0.958 2.899,1.861 3.485,2.711c0.585,0.85 0.877,1.954 0.877,3.31c0,1.831 -0.534,3.283 -1.603,4.356c-1.068,1.074 -2.523,1.611 -4.363,1.611c-1.338,0 -2.483,-0.332 -3.436,-0.997c-0.953,-0.664 -1.698,-1.656 -2.237,-2.976" style="fill:#025960;fill-rule:nonzero;"/></g><defs><linearGradient id="_Linear1" x1="0" y1="0" x2="1" y2="0" gradientUnits="userSpaceOnUse" gradientTransform="matrix(147.730653,0,0,147.730653,318.376658,198.711316)"><stop offset="0" style="stop-color:#e1ab6b;stop-opacity:1"/><stop offset="1" style="stop-color:#a18462;stop-opacity:1"/></linearGradient></defs></svg>